<?xml version="1.0" standalone="no"?><!DOCTYPE svg PUBLIC "-//W3C//DTD SVG 1.1//EN" "http://www.w3.org/Graphics/SVG/1.1/DTD/svg11.dtd"><svg t="1649918905195" class="icon" viewBox="0 0 1024 1024" version="1.1" xmlns="http://www.w3.org/2000/svg" p-id="4027" xmlns:xlink="http://www.w3.org/1999/xlink" width="64" height="64"><defs><style type="text/css">@font-face { font-family: "feedback-iconfont"; src: url("//at.alicdn.com/t/font_1031158_u69w8yhxdu.woff2?t=1630033759944") format("woff2"), url("//at.alicdn.com/t/font_1031158_u69w8yhxdu.woff?t=1630033759944") format("woff"), url("//at.alicdn.com/t/font_1031158_u69w8yhxdu.ttf?t=1630033759944") format("truetype"); }
</style></defs><path d="M383.4 407.5c0-36.8-29.9-66.7-66.7-66.7-36.9 0-66.7 29.9-66.7 66.7 0 36.9 29.9 66.7 66.7 66.7s66.7-29.9 66.7-66.7zM707.3 340.7c-36.9 0-66.7 29.9-66.7 66.7 0 36.9 29.9 66.7 66.7 66.7 36.9 0 66.7-29.9 66.7-66.7 0.1-36.8-29.8-66.7-66.7-66.7z" p-id="4028" fill="#515151"></path><path d="M512 64C264.6 64 64 264.6 64 512s200.6 448 448 448 448-200.6 448-448S759.4 64 512 64z m265.9 713.9c-34.6 34.6-74.8 61.7-119.5 80.6C612 878.1 562.8 888 512 888s-100-9.9-146.3-29.5c-44.8-18.9-85-46.1-119.5-80.6-34.6-34.6-61.7-74.8-80.6-119.5C145.9 612 136 562.8 136 512s9.9-100 29.5-146.3c18.9-44.8 46.1-85 80.6-119.5 34.6-34.6 74.8-61.7 119.5-80.6C412 145.9 461.2 136 512 136s100 9.9 146.3 29.5c44.8 18.9 85 46.1 119.5 80.6 34.6 34.6 61.7 74.8 80.6 119.5C878.1 412 888 461.2 888 512s-9.9 100-29.5 146.3c-19 44.8-46.1 85-80.6 119.6z" p-id="4029" fill="#515151"></path><path d="M692.7 681.6c-6-10.8-16.4-27.1-31.7-43.4-17.2-18.4-37-33.1-58.8-43.7-27.2-13.2-57.6-19.9-90.2-19.9s-62.9 6.7-90.2 19.9c-21.8 10.6-41.6 25.2-58.8 43.7-29.2 31.3-41 62.4-41.5 63.8-1.4 3.7-0.8 7.8 1.4 11s5.9 5.1 9.8 5.1h44.8c4.7 0 9-2.7 10.9-7 0.1-0.1 8.2-17.3 27.5-34.1 25.6-22.3 57.9-33.6 96-33.6 92.7 0 123.1 66.8 123.4 67.5 1.9 4.4 6.2 7.2 11 7.2h44.8c6.6 0 12-5.4 12-12 0-2.4-0.3-3.6-3.2-10.1-2-4.6-4.5-9.4-7.2-14.4z" p-id="4030" fill="#515151"></path></svg>