<?xml version="1.0" standalone="no"?><!DOCTYPE svg PUBLIC "-//W3C//DTD SVG 1.1//EN" "http://www.w3.org/Graphics/SVG/1.1/DTD/svg11.dtd"><svg t="1653459207244" class="icon" viewBox="0 0 1024 1024" version="1.1" xmlns="http://www.w3.org/2000/svg" p-id="8214" xmlns:xlink="http://www.w3.org/1999/xlink" width="64" height="64"><defs><style type="text/css">@font-face { font-family: "feedback-iconfont"; src: url("//at.alicdn.com/t/font_1031158_u69w8yhxdu.woff2?t=1630033759944") format("woff2"), url("//at.alicdn.com/t/font_1031158_u69w8yhxdu.woff?t=1630033759944") format("woff"), url("//at.alicdn.com/t/font_1031158_u69w8yhxdu.ttf?t=1630033759944") format("truetype"); }
</style></defs><path d="M498.383506 963.46931l-51.189826-281.544043a51.292206 51.292206 0 0 0-16.636693-29.357365L243.253413 435.113521v192.832075l106.398054 89.863739 47.990462 263.960338a51.241016 51.241016 0 0 0 59.508172 41.20781 51.189826 51.189826 0 0 0 41.233405-59.508173z" fill="#B2AEAD" p-id="8215"></path><path d="M407.214426 107.191496a89.582196 89.582196 0 0 0-124.87758-21.422943c-15.920036 11.261762-156.487298 117.199107-190.605318 368.208419-0.383924 2.764251-0.153569 5.451716-0.281544 8.190372-1.40772 9.598092-2.636276 10.340345-0.819037 26.746684a16.25277 16.25277 0 0 0-0.947012 6.987412l75.940107 225.619158-73.815729 236.343427a51.189826 51.189826 0 1 0 98.079707 29.408555l76.810334-246.325443c1.970808-6.577893 2.610681-13.488519 1.817239-20.347956L268.848326 470.306527c-0.281544-2.482707-1.35653-4.504705-2.329137-6.577893 1.40772-0.998202 2.201163-1.996403 2.329137-3.0202 18.453932-156.000995 122.957962-252.135488 127.974565-255.94913 39.59533-28.768682 38.725103-57.486175 10.391535-97.567808z" fill="#7E8CCF" p-id="8216"></path><path d="M268.848326 511.89826H95.058867l70.565175 209.622338-73.815729 236.343427a51.189826 51.189826 0 1 0 98.079707 29.408555l76.810334-246.325443A51.189826 51.189826 0 0 0 268.848326 720.599181V511.89826z" fill="#D2CCC9" p-id="8217"></path><path d="M590.346029 190.400558a38.39237 38.39237 0 0 0-54.286811 0l-131.327498 131.301904L366.851248 281.544043H204.861044C183.745241 281.544043 166.468674 264.267477 166.468674 243.151674S183.745241 204.759304 204.861044 204.759304H396.822891V153.569478H213.768074c-26.925848 33.503741-56.897492 80.060888-81.315039 141.872603A89.300651 89.300651 0 0 0 204.861044 332.733869h100.971932c1.433315-3.045795-2.201163 4.991008-5.349337 12.234369l87.841741 58.100452a38.39237 38.39237 0 0 0 48.451171-4.786249l153.569478-153.569478a38.39237 38.39237 0 0 0 0-54.312405z" fill="#606FC4" p-id="8218"></path><path d="M371.227978 102.379652m-102.379652 0a102.379652 102.379652 0 1 0 204.759304 0 102.379652 102.379652 0 1 0-204.759304 0Z" fill="#FFBA57" p-id="8219"></path><path d="M422.417804 179.164391h358.328783v51.189826H422.417804z" fill="#A1887F" p-id="8220"></path><path d="M460.810174 281.544043h-255.94913C183.745241 281.544043 166.468674 264.267477 166.468674 243.151674S183.745241 204.759304 204.861044 204.759304h255.94913c21.115803 0 38.39237 17.276566 38.392369 38.39237s-17.276566 38.39237-38.392369 38.392369z" fill="#7E8CCF" p-id="8221"></path></svg>