<?xml version="1.0" standalone="no"?><!DOCTYPE svg PUBLIC "-//W3C//DTD SVG 1.1//EN" "http://www.w3.org/Graphics/SVG/1.1/DTD/svg11.dtd"><svg t="1649919015554" class="icon" viewBox="0 0 1024 1024" version="1.1" xmlns="http://www.w3.org/2000/svg" p-id="6806" xmlns:xlink="http://www.w3.org/1999/xlink" width="64" height="64"><defs><style type="text/css">@font-face { font-family: "feedback-iconfont"; src: url("//at.alicdn.com/t/font_1031158_u69w8yhxdu.woff2?t=1630033759944") format("woff2"), url("//at.alicdn.com/t/font_1031158_u69w8yhxdu.woff?t=1630033759944") format("woff"), url("//at.alicdn.com/t/font_1031158_u69w8yhxdu.ttf?t=1630033759944") format("truetype"); }
</style></defs><path d="M512 512m-512 0a512 512 0 1 0 1024 0 512 512 0 1 0-1024 0Z" fill="#FCD063" p-id="6807"></path><path d="M840.512 119.488C915.008 208.416 960 322.912 960 448c0 282.752-229.248 512-512 512-125.088 0-239.584-44.992-328.512-119.488C213.408 952.64 354.304 1024 512 1024c282.752 0 512-229.248 512-512 0-157.696-71.36-298.592-183.488-392.512z" fill="#F7B84E" p-id="6808"></path><path d="M320 448m-64 0a64 64 0 1 0 128 0 64 64 0 1 0-128 0Z" fill="#C98E3F" p-id="6809"></path><path d="M320 416c29.792 0 54.592 20.448 61.728 48 1.344-5.152 2.272-10.432 2.272-16 0-35.328-28.672-64-64-64s-64 28.672-64 64c0 5.568 0.928 10.848 2.272 16 7.136-27.552 31.936-48 61.728-48z" fill="#AB7934" p-id="6810"></path><path d="M816 560m-48 0a48 48 0 1 0 96 0 48 48 0 1 0-96 0Z" fill="#F7B84E" p-id="6811"></path><path d="M208 560m-48 0a48 48 0 1 0 96 0 48 48 0 1 0-96 0Z" fill="#F7B84E" p-id="6812"></path><path d="M681.376 374.624c8.192 0 16.384 3.136 22.624 9.376 12.512 12.512 12.512 32.736 0 45.248l-9.376 9.376h50.752c17.696 0 32 14.336 32 32s-14.304 32-32 32h-128c-12.928 0-24.64-7.808-29.568-19.744a32.054 32.054 0 0 1 6.944-34.88l64-64a31.912 31.912 0 0 1 22.624-9.376z" fill="#C98E3F" p-id="6813"></path><path d="M704 416c-6.24-6.24-14.432-9.376-22.624-9.376s-16.384 3.136-22.624 9.376l-64 64c-1.952 1.952-3.424 4.16-4.768 6.464-0.704-1.216-1.6-2.272-2.144-3.584a32.054 32.054 0 0 1 6.944-34.88l64-64c6.24-6.24 14.432-9.376 22.624-9.376S697.76 377.76 704 384c10.56 10.56 11.616 26.368 4.416 38.624-1.344-2.272-2.464-4.672-4.416-6.624zM745.376 470.624h-50.752v-32h50.752c17.696 0 32 14.336 32 32 0 5.952-2.048 11.232-4.896 16-5.6-9.376-15.392-16-27.104-16z" fill="#AB7934" p-id="6814"></path><path d="M704 592c0-26.496-21.504-48-48-48s-48 21.504-48 48c0 26.464-21.536 48-48 48h-96c-26.528 0-48 21.504-48 48s21.472 48 48 48h96c3.328 0 6.56-0.352 9.696-0.992C644.512 729.952 704 668.096 704 592z" fill="#C98E3F" p-id="6815"></path><path d="M448 720c0-26.496 21.472-48 48-48h96c26.464 0 48-21.536 48-48 0-26.496 21.504-48 48-48 4.8 0 9.376 0.928 13.76 2.24C695.808 558.496 677.696 544 656 544c-26.496 0-48 21.504-48 48 0 26.464-21.536 48-48 48h-96c-26.528 0-48 21.504-48 48 0 21.696 14.496 39.808 34.24 45.76-1.312-4.384-2.24-8.96-2.24-13.76z" fill="#AB7934" p-id="6816"></path></svg>